<svg width="354" height="320" viewBox="0 0 354 320" fill="none" xmlns="http://www.w3.org/2000/svg">
<path d="M242.346 47.1837L307.192 159.5L242.346 271.816H112.654L47.8083 159.5L112.654 47.1837H242.346Z" stroke="#E35E4E" stroke-width="1.4"/>
<path d="M231.096 68.0353L284.192 160L231.096 251.965H124.904L71.8083 160L124.904 68.0353H231.096Z" stroke="#E35E4E" stroke-opacity="0.2" stroke-width="1.4"/>
<path d="M218.346 88.7529L259.192 159.5L218.346 230.247H136.654L95.8083 159.5L136.654 88.7529H218.346Z" stroke="#E35E4E" stroke-opacity="0.2" stroke-width="1.4"/>
<path d="M204.346 113.002L231.192 159.5L204.346 205.998H150.654L123.808 159.5L150.654 113.002H204.346Z" stroke="#E35E4E" stroke-opacity="0.2" stroke-width="1.4"/>
<path d="M192.846 132.92L208.192 159.5L192.846 186.08H162.154L146.808 159.5L162.154 132.92H192.846Z" stroke="#E35E4E" stroke-opacity="0.2" stroke-width="1.4"/>
<path d="M257.596 22.1359L337.192 160L257.596 297.864H98.4041L18.8083 160L98.4041 22.1359H257.596Z" stroke="#E35E4E" stroke-width="1.4"/>
<line x1="243.432" y1="48.251" x2="178.432" y2="160.251" stroke="#E35E4E" stroke-opacity="0.2"/>
<path opacity="0.2" d="M179 159.5H306.5" stroke="#E35E4E"/>
<line x1="179.433" y1="159.75" x2="243.433" y2="270.75" stroke="#E35E4E" stroke-opacity="0.2"/>
<line x1="178.431" y1="160.254" x2="112.431" y2="272.254" stroke="#E35E4E" stroke-opacity="0.2"/>
<line x1="179" y1="159.5" x2="47" y2="159.5" stroke="#E35E4E" stroke-opacity="0.2"/>
<line x1="178.571" y1="159.257" x2="111.571" y2="47.2567" stroke="#E35E4E" stroke-opacity="0.2"/>
<circle cx="99.5" cy="28.5" r="23" fill="black" stroke="#E35E4E"/>
<circle cx="255.5" cy="28.5" r="23" fill="black" stroke="#E35E4E"/>
<circle cx="255.5" cy="290.5" r="23" fill="black" stroke="#E35E4E"/>
<circle cx="99.5" cy="290.5" r="23" fill="black" stroke="#E35E4E"/>
<circle cx="23.5" cy="159.5" r="23" fill="black" stroke="#E35E4E"/>
<circle cx="330.5" cy="159.5" r="23" fill="black" stroke="#E35E4E"/>
<path d="M87.244 34C86.948 34 86.676 33.928 86.428 33.784C86.188 33.64 85.996 33.444 85.852 33.196C85.708 32.948 85.636 32.676 85.636 32.38V31.804H87.076V32.332C87.076 32.396 87.096 32.448 87.136 32.488C87.176 32.528 87.228 32.548 87.292 32.548H92.596C92.66 32.548 92.712 32.528 92.752 32.488C92.8 32.448 92.824 32.396 92.824 32.332V30.616C92.824 30.56 92.8 30.512 92.752 30.472C92.712 30.424 92.66 30.4 92.596 30.4H87.244C86.948 30.4 86.676 30.328 86.428 30.184C86.188 30.04 85.996 29.848 85.852 29.608C85.708 29.36 85.636 29.088 85.636 28.792V26.98C85.636 26.684 85.708 26.412 85.852 26.164C85.996 25.916 86.188 25.72 86.428 25.576C86.676 25.432 86.948 25.36 87.244 25.36H92.656C92.952 25.36 93.22 25.432 93.46 25.576C93.708 25.72 93.904 25.916 94.048 26.164C94.2 26.412 94.276 26.684 94.276 26.98V27.556H92.824V27.028C92.824 26.964 92.8 26.912 92.752 26.872C92.712 26.832 92.66 26.812 92.596 26.812H87.292C87.228 26.812 87.176 26.832 87.136 26.872C87.096 26.912 87.076 26.964 87.076 27.028V28.744C87.076 28.8 87.096 28.852 87.136 28.9C87.176 28.94 87.228 28.96 87.292 28.96H92.656C92.952 28.96 93.22 29.032 93.46 29.176C93.708 29.32 93.904 29.516 94.048 29.764C94.2 30.004 94.276 30.272 94.276 30.568V32.38C94.276 32.676 94.2 32.948 94.048 33.196C93.904 33.444 93.708 33.64 93.46 33.784C93.22 33.928 92.952 34 92.656 34H87.244ZM98.7423 34V26.812H95.1423V25.36H103.782V26.812H100.182V34H98.7423ZM111.664 34L109.012 30.832H110.896L113.284 33.664V34H111.664ZM104.68 34V25.372H111.7C111.996 25.372 112.264 25.448 112.504 25.6C112.752 25.744 112.948 25.94 113.092 26.188C113.244 26.428 113.32 26.696 113.32 26.992V29.368C113.32 29.656 113.244 29.924 113.092 30.172C112.948 30.42 112.752 30.616 112.504 30.76C112.264 30.904 111.996 30.976 111.7 30.976L106.12 30.988V34H104.68ZM106.336 29.524H111.652C111.708 29.524 111.756 29.504 111.796 29.464C111.844 29.424 111.868 29.372 111.868 29.308V27.028C111.868 26.972 111.844 26.924 111.796 26.884C111.756 26.836 111.708 26.812 111.652 26.812H106.336C106.28 26.812 106.228 26.836 106.18 26.884C106.14 26.924 106.12 26.972 106.12 27.028V29.308C106.12 29.372 106.14 29.424 106.18 29.464C106.228 29.504 106.28 29.524 106.336 29.524Z" fill="#E35E4E"/>
<path d="M241.696 34V25.36H248.716C249.012 25.36 249.28 25.432 249.52 25.576C249.768 25.72 249.964 25.916 250.108 26.164C250.26 26.412 250.336 26.684 250.336 26.98V32.38C250.336 32.676 250.26 32.948 250.108 33.196C249.964 33.444 249.768 33.64 249.52 33.784C249.28 33.928 249.012 34 248.716 34H241.696ZM243.352 32.548H248.668C248.724 32.548 248.772 32.528 248.812 32.488C248.86 32.448 248.884 32.396 248.884 32.332V27.028C248.884 26.964 248.86 26.912 248.812 26.872C248.772 26.832 248.724 26.812 248.668 26.812H243.352C243.288 26.812 243.232 26.832 243.184 26.872C243.144 26.912 243.124 26.964 243.124 27.028V32.332C243.124 32.396 243.144 32.448 243.184 32.488C243.232 32.528 243.288 32.548 243.352 32.548ZM251.704 34V25.36H259.636V26.812H253.156V28.96H258.376V30.4H253.156V32.548H259.636V34H251.704ZM260.747 34V33.664L264.083 29.68L260.747 25.696V25.36H262.355L265.043 28.54L267.719 25.36H269.327V25.696L265.979 29.68L269.327 33.652V34H267.719L265.031 30.82L262.355 34H260.747Z" fill="#E35E4E"/>
<path d="M320.576 164V155.36H322.004V164H320.576ZM323.238 164V155.36H324.882L330.426 161.96V155.36H331.878V164H330.234L324.678 157.388V164H323.238ZM336.391 164V156.812H332.791V155.36H341.431V156.812H337.831V164H336.391Z" fill="#E35E4E"/>
<path d="M243.292 296C242.996 296 242.724 295.928 242.476 295.784C242.228 295.64 242.032 295.444 241.888 295.196C241.744 294.948 241.672 294.676 241.672 294.38V288.98C241.672 288.684 241.744 288.412 241.888 288.164C242.032 287.916 242.228 287.72 242.476 287.576C242.724 287.432 242.996 287.36 243.292 287.36H250.288V288.812H243.544C243.416 288.812 243.312 288.852 243.232 288.932C243.152 289.004 243.112 289.104 243.112 289.232V294.128C243.112 294.256 243.152 294.36 243.232 294.44C243.312 294.512 243.416 294.548 243.544 294.548H250.288V296H243.292ZM253.135 296C252.839 296 252.567 295.928 252.319 295.784C252.071 295.64 251.875 295.444 251.731 295.196C251.587 294.948 251.515 294.676 251.515 294.38V288.98C251.515 288.684 251.587 288.412 251.731 288.164C251.875 287.916 252.071 287.72 252.319 287.576C252.567 287.432 252.839 287.36 253.135 287.36H258.535C258.831 287.36 259.099 287.432 259.339 287.576C259.587 287.72 259.783 287.916 259.927 288.164C260.079 288.412 260.155 288.684 260.155 288.98V294.38C260.155 294.676 260.079 294.948 259.927 295.196C259.783 295.444 259.587 295.64 259.339 295.784C259.099 295.928 258.831 296 258.535 296H253.135ZM253.171 294.548H258.487C258.543 294.548 258.591 294.528 258.631 294.488C258.679 294.448 258.703 294.396 258.703 294.332V289.028C258.703 288.964 258.679 288.912 258.631 288.872C258.591 288.832 258.543 288.812 258.487 288.812H253.171C253.115 288.812 253.063 288.832 253.015 288.872C252.975 288.912 252.955 288.964 252.955 289.028V294.332C252.955 294.396 252.975 294.448 253.015 294.488C253.063 294.528 253.115 294.548 253.171 294.548ZM261.477 296V287.36H263.121L268.665 293.96V287.36H270.117V296H268.473L262.917 289.388V296H261.477Z" fill="#E35E4E"/>
<path d="M89.564 295L86.42 286.36H87.956L90.14 292.348L92.324 286.36H93.788L95.984 292.348L98.168 286.36H99.704L96.56 295H95.396L93.056 288.58L90.716 295H89.564ZM100.721 295V286.36H102.149V295H100.721ZM104.955 295C104.659 295 104.387 294.928 104.139 294.784C103.899 294.64 103.707 294.444 103.563 294.196C103.419 293.948 103.347 293.676 103.347 293.38V292.804H104.787V293.332C104.787 293.396 104.807 293.448 104.847 293.488C104.887 293.528 104.939 293.548 105.003 293.548H110.307C110.371 293.548 110.423 293.528 110.463 293.488C110.511 293.448 110.535 293.396 110.535 293.332V291.616C110.535 291.56 110.511 291.512 110.463 291.472C110.423 291.424 110.371 291.4 110.307 291.4H104.955C104.659 291.4 104.387 291.328 104.139 291.184C103.899 291.04 103.707 290.848 103.563 290.608C103.419 290.36 103.347 290.088 103.347 289.792V287.98C103.347 287.684 103.419 287.412 103.563 287.164C103.707 286.916 103.899 286.72 104.139 286.576C104.387 286.432 104.659 286.36 104.955 286.36H110.367C110.663 286.36 110.931 286.432 111.171 286.576C111.419 286.72 111.615 286.916 111.759 287.164C111.911 287.412 111.987 287.684 111.987 287.98V288.556H110.535V288.028C110.535 287.964 110.511 287.912 110.463 287.872C110.423 287.832 110.371 287.812 110.307 287.812H105.003C104.939 287.812 104.887 287.832 104.847 287.872C104.807 287.912 104.787 287.964 104.787 288.028V289.744C104.787 289.8 104.807 289.852 104.847 289.9C104.887 289.94 104.939 289.96 105.003 289.96H110.367C110.663 289.96 110.931 290.032 111.171 290.176C111.419 290.32 111.615 290.516 111.759 290.764C111.911 291.004 111.987 291.272 111.987 291.568V293.38C111.987 293.676 111.911 293.948 111.759 294.196C111.615 294.444 111.419 294.64 111.171 294.784C110.931 294.928 110.663 295 110.367 295H104.955Z" fill="#E35E4E"/>
<path d="M10.292 164C9.996 164 9.724 163.928 9.476 163.784C9.228 163.64 9.032 163.444 8.888 163.196C8.744 162.948 8.672 162.676 8.672 162.38V156.98C8.672 156.684 8.744 156.412 8.888 156.164C9.032 155.916 9.228 155.72 9.476 155.576C9.724 155.432 9.996 155.36 10.292 155.36H17.288V156.812H10.544C10.416 156.812 10.312 156.852 10.232 156.932C10.152 157.004 10.112 157.104 10.112 157.232V162.128C10.112 162.256 10.152 162.36 10.232 162.44C10.312 162.512 10.416 162.548 10.544 162.548H17.288V164H10.292ZM18.5512 164V155.36H19.9912V158.96H25.9432V155.36H27.3832V164H25.9432V160.4H19.9912V164H18.5512ZM28.7702 164V156.98C28.7702 156.684 28.8422 156.412 28.9862 156.164C29.1302 155.916 29.3262 155.72 29.5742 155.576C29.8222 155.432 30.0942 155.36 30.3902 155.36H35.7902C36.0862 155.36 36.3542 155.432 36.5942 155.576C36.8422 155.72 37.0382 155.916 37.1822 156.164C37.3342 156.412 37.4102 156.684 37.4102 156.98V164H35.9582V161.036H30.2102V164H28.7702ZM30.2102 159.596H35.9582V157.028C35.9582 156.964 35.9342 156.912 35.8862 156.872C35.8462 156.832 35.7982 156.812 35.7422 156.812H30.4262C30.3702 156.812 30.3182 156.832 30.2702 156.872C30.2302 156.912 30.2102 156.964 30.2102 157.028V159.596Z" fill="#E35E4E"/>
<path d="M259.5 160.5L213.5 218.5L137 230.5L72 160.5L141.5 97.5L218 90L259.5 160.5Z" fill="url(#paint0_linear_609_6)"/>
<circle cx="141.5" cy="97.5" r="1.5" fill="#FFA59A"/>
<circle cx="218.5" cy="89.5" r="1.5" fill="#FFA59A"/>
<circle cx="136.5" cy="229.5" r="1.5" fill="#FFA59A"/>
<circle cx="72.5" cy="159.5" r="1.5" fill="#FFA59A"/>
<circle cx="213.5" cy="218.5" r="1.5" fill="#FFA59A"/>
<circle cx="258.5" cy="159.5" r="1.5" fill="#FFA59A"/>
<defs>
<linearGradient id="paint0_linear_609_6" x1="129" y1="253" x2="195.5" y2="60.4999" gradientUnits="userSpaceOnUse">
<stop stop-color="#E35E4E"/>
<stop offset="1" stop-opacity="0"/>
</linearGradient>
</defs>
</svg>
