<svg width="64" height="56" viewBox="0 0 64 56" fill="none" xmlns="http://www.w3.org/2000/svg">
<rect x="0.3" y="0.3" width="63.4" height="55.4" stroke="#E35E4E" stroke-width="0.6"/>
<path d="M36.75 28C36.75 27.5858 36.4142 27.25 36 27.25C35.5858 27.25 35.25 27.5858 35.25 28H36.75ZM27.5162 22.9582L27.6411 23.6977L27.5162 22.9582ZM29.0993 22.2203L28.6865 21.5941L28.6865 21.5941L29.0993 22.2203ZM28.2279 22.7446L28.5308 23.4308L28.2279 22.7446ZM23.8399 32.7227L23.525 33.4034L23.8399 32.7227ZM22.0348 29.0284L21.2862 29.0741L22.0348 29.0284ZM22.4585 31.423L23.1188 31.0673L22.4585 31.423ZM34.2001 36.0749L33.9578 35.3651L34.2001 36.0749ZM35.9127 30.6054L36.6619 30.6402L35.9127 30.6054ZM34.7797 35.78L35.2109 36.3936L34.7797 35.78ZM29.3183 22.0759L29.7311 22.7021L29.7311 22.7021L29.3183 22.0759ZM34.2001 19.9251L33.9578 20.6349L34.2001 19.9251ZM34.7797 20.2201L35.2109 19.6065L34.7797 20.2201ZM23.8399 23.2773L23.525 22.5966L23.8399 23.2773ZM22.0348 26.9716L21.2862 26.926L22.0348 26.9716ZM22.4585 24.577L23.1188 24.9328L22.4585 24.577ZM30.4111 33.7455C30.0646 33.5184 29.5997 33.6153 29.3727 33.9617C29.1457 34.3082 29.2425 34.7731 29.5889 35.0001L30.4111 33.7455ZM29.5122 22.8464L29.7311 22.7021L28.9054 21.4498L28.6865 21.5941L29.5122 22.8464ZM22.7834 28.9828C22.7623 28.6358 22.75 28.3033 22.75 28H21.25C21.25 28.3416 21.2637 28.7058 21.2862 29.0741L22.7834 28.9828ZM22.75 28C22.75 27.6968 22.7623 27.3642 22.7834 27.0173L21.2862 26.926C21.2637 27.2943 21.25 27.6585 21.25 28H22.75ZM35.25 28C35.25 28.5118 35.2156 29.451 35.1635 30.5706L36.6619 30.6402C36.7137 29.5253 36.75 28.552 36.75 28H35.25ZM26.5001 23.75C26.9877 23.75 27.3168 23.7524 27.6411 23.6977L27.3913 22.2186C27.2196 22.2476 27.0366 22.25 26.5001 22.25V23.75ZM28.6865 21.5941C28.2386 21.8894 28.0845 21.9881 27.9251 22.0585L28.5308 23.4308C28.8316 23.298 29.1051 23.1148 29.5122 22.8464L28.6865 21.5941ZM27.6411 23.6977C27.9476 23.6459 28.2464 23.5563 28.5308 23.4308L27.9251 22.0585C27.7545 22.1338 27.5752 22.1876 27.3913 22.2186L27.6411 23.6977ZM26.5001 33.75C27.0366 33.75 27.2196 33.7524 27.3913 33.7814L27.6411 32.3024C27.3168 32.2476 26.9877 32.25 26.5001 32.25V33.75ZM26.5001 32.25C25.0564 32.25 24.5691 32.2338 24.1548 32.0421L23.525 33.4034C24.3093 33.7663 25.1959 33.75 26.5001 33.75V32.25ZM21.2862 29.0741C21.3565 30.2276 21.3901 31.0212 21.7983 31.7788L23.1188 31.0673C22.9005 30.6622 22.8605 30.247 22.7834 28.9828L21.2862 29.0741ZM24.1548 32.0421C23.7544 31.8568 23.328 31.4556 23.1188 31.0673L21.7983 31.7788C22.1614 32.4527 22.8302 33.082 23.525 33.4034L24.1548 32.0421ZM35.1635 30.5706C35.0924 32.1014 35.041 33.1733 34.9015 33.9482C34.7626 34.7195 34.5651 35.0141 34.3485 35.1664L35.2109 36.3936C35.917 35.8974 36.2159 35.1134 36.3778 34.2139C36.5391 33.318 36.5928 32.1269 36.6619 30.6402L35.1635 30.5706ZM34.4423 36.7848C34.7142 36.692 34.9759 36.5588 35.2109 36.3936L34.3485 35.1664C34.2297 35.2498 34.0952 35.3183 33.9578 35.3651L34.4423 36.7848ZM29.7311 22.7021C31.0209 21.8516 31.926 21.2567 32.6402 20.9098C33.3525 20.5638 33.7087 20.5499 33.9578 20.6349L34.4423 19.2153C33.6241 18.9361 32.8108 19.1593 31.9848 19.5606C31.1607 19.9609 30.1586 20.6235 28.9054 21.4498L29.7311 22.7021ZM33.9578 20.6349C34.0952 20.6818 34.2297 20.7502 34.3485 20.8337L35.2109 19.6065C34.9759 19.4413 34.7142 19.3081 34.4423 19.2153L33.9578 20.6349ZM26.5001 22.25C25.1959 22.25 24.3093 22.2338 23.525 22.5966L24.1548 23.958C24.5691 23.7663 25.0564 23.75 26.5001 23.75V22.25ZM22.7834 27.0173C22.8605 25.7531 22.9005 25.3379 23.1188 24.9328L21.7983 24.2213C21.3901 24.9789 21.3565 25.7725 21.2862 26.926L22.7834 27.0173ZM23.525 22.5966C22.8302 22.9181 22.1614 23.5473 21.7983 24.2213L23.1188 24.9328C23.328 24.5444 23.7544 24.1432 24.1548 23.958L23.525 22.5966ZM29.5889 35.0001C30.6277 35.6808 31.4875 36.2248 32.2204 36.549C32.9627 36.8773 33.7003 37.038 34.4423 36.7848L33.9578 35.3651C33.7324 35.4421 33.4187 35.4389 32.8272 35.1772C32.2264 34.9114 31.4698 34.4393 30.4111 33.7455L29.5889 35.0001ZM36.6231 24.54C36.5624 23.3129 36.4963 22.3071 36.327 21.5298C36.1552 20.7413 35.8503 20.0558 35.2109 19.6065L34.3485 20.8337C34.5443 20.9714 34.7254 21.2253 34.8614 21.8491C34.9997 22.484 35.0631 23.3632 35.1249 24.614L36.6231 24.54Z" fill="#E35E4E"/>
<path d="M40.5 34C40.5 34 42 32.2 42 28C42 25.5666 41.4965 23.9388 41.0729 23" stroke="#E35E4E" stroke-width="1.5" stroke-linecap="round"/>
<path d="M38.5 31C38.5 31 39 30.1 39 28C39 27.1381 38.9158 26.4784 38.8165 26" stroke="#E35E4E" stroke-width="1.5" stroke-linecap="round"/>
<path d="M42.5 18L22.5 38" stroke="#E35E4E" stroke-width="1.5" stroke-linecap="round"/>
</svg>
